<svg width="85" height="85" viewBox="0 0 85 85" fill="none" xmlns="http://www.w3.org/2000/svg">
    <g filter="url(#filter0_d_6886_55610)">
        <ellipse cx="41.6623" cy="37.5684" rx="37.3088" ry="37.2925" fill=" #FFFFF" />
    </g>
    <g clip-path="url(#clip0_6886_55610)">
        <path
            d="M33.4625 30.5182L33.7516 30.4965C33.8563 30.4864 33.9565 30.4534 34.0429 30.4007L34.0408 30.4025C34.3176 31.2373 34.6563 32.1154 35.0798 33.035C35.623 34.2384 36.1579 35.2267 36.7569 36.1807L36.6743 36.0361C36.6247 36.6938 36.5648 37.3696 36.4864 38.0236C36.452 38.4095 36.3624 38.7901 36.2199 39.1565L36.2302 39.124C36.2054 39.133 36.1703 42.8821 36.1703 42.8821C36.1711 44.0454 36.6193 45.1747 37.4428 46.0881C38.2663 47.0015 39.4172 47.646 40.7103 47.9177L40.7516 47.9249C40.809 47.7945 40.9101 47.6823 41.0417 47.603C41.1733 47.5237 41.3292 47.481 41.489 47.4805H42.6746C42.8329 47.4823 42.9871 47.525 43.1179 47.6031C43.2486 47.6812 43.3502 47.7912 43.4099 47.9195L43.4119 47.9249C44.716 47.6613 45.88 47.0202 46.7156 46.1056C47.5512 45.1911 48.0094 44.0565 48.0159 42.8858V42.884C48.0159 42.884 47.9436 39.1511 47.9064 39.1258C47.7833 38.7765 47.699 38.4177 47.6545 38.0544L47.6524 38.0273C47.5801 37.3696 47.5326 36.7101 47.4644 36.0398C47.9746 35.2339 48.5096 34.2474 48.9805 33.2302L49.059 33.0387C49.4824 32.119 49.8108 31.2427 50.0979 30.4061C50.1828 30.4588 50.2816 30.4918 50.385 30.5019H50.3871L50.6783 30.5236C51.0295 30.5561 51.3393 30.3031 51.3682 29.9111L51.6822 26.4221V26.4185C51.682 26.2781 51.6234 26.1426 51.5174 26.0372C51.4113 25.9318 51.2651 25.8637 51.1059 25.8457H51.0666C51.3417 24.029 51.1713 22.1818 50.5668 20.4271L50.5936 20.5193C50.0111 19.3877 49.125 18.3958 48.0107 17.6277C46.8964 16.8596 45.5866 16.3379 44.1927 16.1071L44.139 16.0998C43.4632 15.9813 42.777 15.9136 42.088 15.8975H42.0446C41.3238 15.9088 40.6059 15.9801 39.9006 16.1107L39.975 16.0998C38.5818 16.326 37.2708 16.8409 36.1517 17.6013C35.0327 18.3617 34.1382 19.3456 33.543 20.4705L33.5203 20.5193C32.9256 22.2672 32.7672 24.1065 33.0556 25.9126L33.0473 25.8457C32.8877 25.8609 32.7401 25.9269 32.6326 26.0312C32.5252 26.1355 32.4654 26.2709 32.4648 26.4113V26.4239L32.7788 29.9129C32.8077 30.314 33.1217 30.5561 33.4604 30.5236L33.4625 30.5182Z"
            fill="#05A98B" />
        <path
            d="M64.2089 53.6091C64.0643 48.1164 63.4364 46.8734 63.0976 46.0314C62.9634 45.6935 62.8539 43.4097 58.5412 41.9281C55.8973 41.0175 52.4852 40.9994 49.5976 39.9316V42.902C49.5946 44.4248 48.9863 45.8993 47.8769 47.0728C46.7675 48.2463 45.2261 49.0458 43.5168 49.3342L43.4693 49.3415C43.4383 49.5017 43.3441 49.6474 43.2029 49.753C43.0617 49.8587 42.8826 49.9177 42.6968 49.9196H42.6596V52.1601C42.6596 53.2114 43.1371 54.2197 43.9869 54.9631C44.8368 55.7066 45.9894 56.1242 47.1913 56.1242C48.3932 56.1242 49.5458 55.7066 50.3957 54.9631C51.2455 54.2197 51.723 53.2114 51.723 52.1601V50.5954C51.0992 50.5154 50.5306 50.2381 50.1246 49.8161C49.7187 49.3942 49.5037 48.8567 49.5201 48.3053C49.5366 47.754 49.7835 47.2271 50.2142 46.8243C50.6448 46.4214 51.2292 46.1706 51.8569 46.1192C52.4847 46.0679 53.1121 46.2195 53.6207 46.5455C54.1292 46.8715 54.4835 47.3493 54.6166 47.8883C54.7497 48.4274 54.6524 48.9905 54.3429 49.471C54.0335 49.9515 53.5335 50.3162 52.9375 50.496L52.9189 50.5014V52.245C52.9189 53.5743 52.3153 54.8491 51.2407 55.7891C50.1662 56.729 48.7088 57.2571 47.1892 57.2571C45.6696 57.2571 44.2123 56.729 43.1378 55.7891C42.0632 54.8491 41.4596 53.5743 41.4596 52.245V52.1547V52.1583V49.898C41.2827 49.8874 41.1151 49.8249 40.9839 49.7207C40.8527 49.6164 40.7656 49.4764 40.7367 49.3234V49.3198C39.0255 49.0343 37.481 48.2372 36.3679 47.065C35.2548 45.8929 34.6422 44.4186 34.6352 42.8948V39.9009C31.7353 40.9904 28.3024 41.0121 25.6441 41.9245C21.319 43.4043 21.2198 45.6827 21.0877 46.026C20.7572 46.8715 20.121 48.1092 19.9764 53.6055C19.9516 54.3282 19.9764 55.4358 22.4674 56.4043C27.8914 58.2653 34.8789 58.8435 41.7673 59.259H42.4283C49.3312 58.8471 56.3084 58.2707 61.7282 56.4043C64.2089 55.4412 64.2316 54.3409 64.2089 53.6109V53.6091ZM33.8854 51.3687H31.3118V53.629H29.4735V51.3759H26.8999V49.7679H29.4735V47.5166H31.3118V49.7679H33.8854V51.3687Z"
            fill="#05A98B" />
        <path
            d="M53.4872 48.3458V48.344C53.4869 48.0216 53.3403 47.7124 53.0795 47.4846C52.8187 47.2567 52.4652 47.1288 52.0966 47.1289C51.728 47.129 51.3746 47.2572 51.114 47.4852C50.8534 47.7132 50.707 48.0225 50.707 48.3449C50.707 48.6673 50.8534 48.9765 51.114 49.2046C51.3746 49.4326 51.728 49.5608 52.0966 49.5609C52.4652 49.561 52.8187 49.4331 53.0795 49.2052C53.3403 48.9773 53.4869 48.6682 53.4872 48.3458Z"
            fill="#05A98B" />
    </g>
    <defs>
        <filter id="filter0_d_6886_55610" x="0.353516" y="0.275879" width="82.6172" height="82.585"
            filterUnits="userSpaceOnUse" color-interpolation-filters="sRGB">
            <feFlood flood-opacity="0" result="BackgroundImageFix" />
            <feColorMatrix in="SourceAlpha" type="matrix" values="0 0 0 0 0 0 0 0 0 0 0 0 0 0 0 0 0 0 127 0"
                result="hardAlpha" />
            <feOffset dy="4" />
            <feGaussianBlur stdDeviation="2" />
            <feComposite in2="hardAlpha" operator="out" />
            <feColorMatrix type="matrix" values="0 0 0 0 0 0 0 0 0 0 0 0 0 0 0 0 0 0 0.25 0" />
            <feBlend mode="normal" in2="BackgroundImageFix" result="effect1_dropShadow_6886_55610" />
            <feBlend mode="normal" in="SourceGraphic" in2="effect1_dropShadow_6886_55610" result="shape" />
        </filter>
        <clipPath id="clip0_6886_55610">
            <rect width="43.3824" height="43.3634" fill="white" transform="translate(19.9707 15.8867)" />
        </clipPath>
    </defs>
</svg>