<svg width="87" height="22" viewBox="0 0 87 22" fill="none" xmlns="http://www.w3.org/2000/svg">
<path d="M0.02125 9.02C0.02125 7.66 0.334583 6.44 0.96125 5.36C1.60125 4.28 2.46125 3.44 3.54125 2.84C4.63458 2.22667 5.82792 1.92 7.12125 1.92C8.60125 1.92 9.91458 2.28667 11.0613 3.02C12.2213 3.74 13.0613 4.76667 13.5813 6.1H10.8413C10.4813 5.36667 9.98125 4.82 9.34125 4.46C8.70125 4.1 7.96125 3.92 7.12125 3.92C6.20125 3.92 5.38125 4.12667 4.66125 4.54C3.94125 4.95333 3.37458 5.54667 2.96125 6.32C2.56125 7.09333 2.36125 7.99333 2.36125 9.02C2.36125 10.0467 2.56125 10.9467 2.96125 11.72C3.37458 12.4933 3.94125 13.0933 4.66125 13.52C5.38125 13.9333 6.20125 14.14 7.12125 14.14C7.96125 14.14 8.70125 13.96 9.34125 13.6C9.98125 13.24 10.4813 12.6933 10.8413 11.96H13.5813C13.0613 13.2933 12.2213 14.32 11.0613 15.04C9.91458 15.76 8.60125 16.12 7.12125 16.12C5.81458 16.12 4.62125 15.82 3.54125 15.22C2.46125 14.6067 1.60125 13.76 0.96125 12.68C0.334583 11.6 0.02125 10.38 0.02125 9.02ZM15.49 10.44C15.49 9.33333 15.7167 8.35333 16.17 7.5C16.6367 6.64667 17.2633 5.98667 18.05 5.52C18.85 5.04 19.73 4.8 20.69 4.8C21.5567 4.8 22.31 4.97333 22.95 5.32C23.6033 5.65333 24.1233 6.07333 24.51 6.58V4.98H26.81V16H24.51V14.36C24.1233 14.88 23.5967 15.3133 22.93 15.66C22.2633 16.0067 21.5033 16.18 20.65 16.18C19.7033 16.18 18.8367 15.94 18.05 15.46C17.2633 14.9667 16.6367 14.2867 16.17 13.42C15.7167 12.54 15.49 11.5467 15.49 10.44ZM24.51 10.48C24.51 9.72 24.35 9.06 24.03 8.5C23.7233 7.94 23.3167 7.51333 22.81 7.22C22.3033 6.92667 21.7567 6.78 21.17 6.78C20.5833 6.78 20.0367 6.92667 19.53 7.22C19.0233 7.5 18.61 7.92 18.29 8.48C17.9833 9.02667 17.83 9.68 17.83 10.44C17.83 11.2 17.9833 11.8667 18.29 12.44C18.61 13.0133 19.0233 13.4533 19.53 13.76C20.05 14.0533 20.5967 14.2 21.17 14.2C21.7567 14.2 22.3033 14.0533 22.81 13.76C23.3167 13.4667 23.7233 13.04 24.03 12.48C24.35 11.9067 24.51 11.24 24.51 10.48ZM32.0847 6.58C32.418 6.02 32.858 5.58667 33.4047 5.28C33.9647 4.96 34.6247 4.8 35.3847 4.8V7.16H34.8047C33.9114 7.16 33.2314 7.38667 32.7647 7.84C32.3114 8.29333 32.0847 9.08 32.0847 10.2V16H29.8047V4.98H32.0847V6.58ZM47.5805 10.22C47.5805 10.6333 47.5538 11.0067 47.5005 11.34H39.0805C39.1471 12.22 39.4738 12.9267 40.0605 13.46C40.6471 13.9933 41.3671 14.26 42.2205 14.26C43.4471 14.26 44.3138 13.7467 44.8205 12.72H47.2805C46.9471 13.7333 46.3405 14.5667 45.4605 15.22C44.5938 15.86 43.5138 16.18 42.2205 16.18C41.1671 16.18 40.2205 15.9467 39.3805 15.48C38.5538 15 37.9005 14.3333 37.4205 13.48C36.9538 12.6133 36.7205 11.6133 36.7205 10.48C36.7205 9.34667 36.9471 8.35333 37.4005 7.5C37.8671 6.63333 38.5138 5.96667 39.3405 5.5C40.1805 5.03333 41.1405 4.8 42.2205 4.8C43.2605 4.8 44.1871 5.02667 45.0005 5.48C45.8138 5.93333 46.4471 6.57333 46.9005 7.4C47.3538 8.21333 47.5805 9.15333 47.5805 10.22ZM45.2005 9.5C45.1871 8.66 44.8871 7.98667 44.3005 7.48C43.7138 6.97333 42.9871 6.72 42.1205 6.72C41.3338 6.72 40.6605 6.97333 40.1005 7.48C39.5405 7.97333 39.2071 8.64667 39.1005 9.5H45.2005ZM52.1042 1.2V16H49.8242V1.2H52.1042ZM65.0177 4.98L58.2577 21.18H55.8977L58.1377 15.82L53.7977 4.98H56.3377L59.4377 13.38L62.6577 4.98H65.0177ZM71.5183 16.18C70.4783 16.18 69.5383 15.9467 68.6983 15.48C67.8583 15 67.1983 14.3333 66.7183 13.48C66.2383 12.6133 65.9983 11.6133 65.9983 10.48C65.9983 9.36 66.2449 8.36667 66.7383 7.5C67.2316 6.63333 67.9049 5.96667 68.7583 5.5C69.6116 5.03333 70.5649 4.8 71.6183 4.8C72.6716 4.8 73.6249 5.03333 74.4783 5.5C75.3316 5.96667 76.0049 6.63333 76.4983 7.5C76.9916 8.36667 77.2383 9.36 77.2383 10.48C77.2383 11.6 76.9849 12.5933 76.4783 13.46C75.9716 14.3267 75.2783 15 74.3983 15.48C73.5316 15.9467 72.5716 16.18 71.5183 16.18ZM71.5183 14.2C72.1049 14.2 72.6516 14.06 73.1583 13.78C73.6783 13.5 74.0983 13.08 74.4183 12.52C74.7383 11.96 74.8983 11.28 74.8983 10.48C74.8983 9.68 74.7449 9.00667 74.4383 8.46C74.1316 7.9 73.7249 7.48 73.2183 7.2C72.7116 6.92 72.1649 6.78 71.5783 6.78C70.9916 6.78 70.4449 6.92 69.9383 7.2C69.4449 7.48 69.0516 7.9 68.7583 8.46C68.4649 9.00667 68.3183 9.68 68.3183 10.48C68.3183 11.6667 68.6183 12.5867 69.2183 13.24C69.8316 13.88 70.5983 14.2 71.5183 14.2ZM78.2802 0.551999H81.2202V1.368H80.2722L80.2842 4.776H79.2042L79.2282 1.368H78.2802V0.551999ZM86.9922 0.551999V4.776H86.0082L85.9842 1.92L84.7962 4.776H84.0642L82.8882 1.86V4.776H81.9162V0.551999H83.3082L84.4602 3.516L85.6722 0.551999H86.9922Z" fill="#227D2C"/>
</svg>
