<svg width="88" height="22" viewBox="0 0 88 22" fill="none" xmlns="http://www.w3.org/2000/svg">
<path d="M0.52125 9.02C0.52125 7.66 0.834583 6.44 1.46125 5.36C2.10125 4.28 2.96125 3.44 4.04125 2.84C5.13458 2.22667 6.32792 1.92 7.62125 1.92C9.10125 1.92 10.4146 2.28667 11.5613 3.02C12.7213 3.74 13.5613 4.76667 14.0813 6.1H11.3413C10.9813 5.36667 10.4813 4.82 9.84125 4.46C9.20125 4.1 8.46125 3.92 7.62125 3.92C6.70125 3.92 5.88125 4.12667 5.16125 4.54C4.44125 4.95333 3.87458 5.54667 3.46125 6.32C3.06125 7.09333 2.86125 7.99333 2.86125 9.02C2.86125 10.0467 3.06125 10.9467 3.46125 11.72C3.87458 12.4933 4.44125 13.0933 5.16125 13.52C5.88125 13.9333 6.70125 14.14 7.62125 14.14C8.46125 14.14 9.20125 13.96 9.84125 13.6C10.4813 13.24 10.9813 12.6933 11.3413 11.96H14.0813C13.5613 13.2933 12.7213 14.32 11.5613 15.04C10.4146 15.76 9.10125 16.12 7.62125 16.12C6.31458 16.12 5.12125 15.82 4.04125 15.22C2.96125 14.6067 2.10125 13.76 1.46125 12.68C0.834583 11.6 0.52125 10.38 0.52125 9.02ZM15.99 10.44C15.99 9.33333 16.2167 8.35333 16.67 7.5C17.1367 6.64667 17.7633 5.98667 18.55 5.52C19.35 5.04 20.23 4.8 21.19 4.8C22.0567 4.8 22.81 4.97333 23.45 5.32C24.1033 5.65333 24.6233 6.07333 25.01 6.58V4.98H27.31V16H25.01V14.36C24.6233 14.88 24.0967 15.3133 23.43 15.66C22.7633 16.0067 22.0033 16.18 21.15 16.18C20.2033 16.18 19.3367 15.94 18.55 15.46C17.7633 14.9667 17.1367 14.2867 16.67 13.42C16.2167 12.54 15.99 11.5467 15.99 10.44ZM25.01 10.48C25.01 9.72 24.85 9.06 24.53 8.5C24.2233 7.94 23.8167 7.51333 23.31 7.22C22.8033 6.92667 22.2567 6.78 21.67 6.78C21.0833 6.78 20.5367 6.92667 20.03 7.22C19.5233 7.5 19.11 7.92 18.79 8.48C18.4833 9.02667 18.33 9.68 18.33 10.44C18.33 11.2 18.4833 11.8667 18.79 12.44C19.11 13.0133 19.5233 13.4533 20.03 13.76C20.55 14.0533 21.0967 14.2 21.67 14.2C22.2567 14.2 22.8033 14.0533 23.31 13.76C23.8167 13.4667 24.2233 13.04 24.53 12.48C24.85 11.9067 25.01 11.24 25.01 10.48ZM32.5847 6.58C32.918 6.02 33.358 5.58667 33.9047 5.28C34.4647 4.96 35.1247 4.8 35.8847 4.8V7.16H35.3047C34.4114 7.16 33.7314 7.38667 33.2647 7.84C32.8114 8.29333 32.5847 9.08 32.5847 10.2V16H30.3047V4.98H32.5847V6.58ZM48.0805 10.22C48.0805 10.6333 48.0538 11.0067 48.0005 11.34H39.5805C39.6471 12.22 39.9738 12.9267 40.5605 13.46C41.1471 13.9933 41.8671 14.26 42.7205 14.26C43.9471 14.26 44.8138 13.7467 45.3205 12.72H47.7805C47.4471 13.7333 46.8405 14.5667 45.9605 15.22C45.0938 15.86 44.0138 16.18 42.7205 16.18C41.6671 16.18 40.7205 15.9467 39.8805 15.48C39.0538 15 38.4005 14.3333 37.9205 13.48C37.4538 12.6133 37.2205 11.6133 37.2205 10.48C37.2205 9.34667 37.4471 8.35333 37.9005 7.5C38.3671 6.63333 39.0138 5.96667 39.8405 5.5C40.6805 5.03333 41.6405 4.8 42.7205 4.8C43.7605 4.8 44.6871 5.02667 45.5005 5.48C46.3138 5.93333 46.9471 6.57333 47.4005 7.4C47.8538 8.21333 48.0805 9.15333 48.0805 10.22ZM45.7005 9.5C45.6871 8.66 45.3871 7.98667 44.8005 7.48C44.2138 6.97333 43.4871 6.72 42.6205 6.72C41.8338 6.72 41.1605 6.97333 40.6005 7.48C40.0405 7.97333 39.7071 8.64667 39.6005 9.5H45.7005ZM52.6042 1.2V16H50.3242V1.2H52.6042ZM65.5177 4.98L58.7577 21.18H56.3977L58.6377 15.82L54.2977 4.98H56.8377L59.9377 13.38L63.1577 4.98H65.5177ZM72.0183 16.18C70.9783 16.18 70.0383 15.9467 69.1983 15.48C68.3583 15 67.6983 14.3333 67.2183 13.48C66.7383 12.6133 66.4983 11.6133 66.4983 10.48C66.4983 9.36 66.7449 8.36667 67.2383 7.5C67.7316 6.63333 68.4049 5.96667 69.2583 5.5C70.1116 5.03333 71.0649 4.8 72.1183 4.8C73.1716 4.8 74.1249 5.03333 74.9783 5.5C75.8316 5.96667 76.5049 6.63333 76.9983 7.5C77.4916 8.36667 77.7383 9.36 77.7383 10.48C77.7383 11.6 77.4849 12.5933 76.9783 13.46C76.4716 14.3267 75.7783 15 74.8983 15.48C74.0316 15.9467 73.0716 16.18 72.0183 16.18ZM72.0183 14.2C72.6049 14.2 73.1516 14.06 73.6583 13.78C74.1783 13.5 74.5983 13.08 74.9183 12.52C75.2383 11.96 75.3983 11.28 75.3983 10.48C75.3983 9.68 75.2449 9.00667 74.9383 8.46C74.6316 7.9 74.2249 7.48 73.7183 7.2C73.2116 6.92 72.6649 6.78 72.0783 6.78C71.4916 6.78 70.9449 6.92 70.4383 7.2C69.9449 7.48 69.5516 7.9 69.2583 8.46C68.9649 9.00667 68.8183 9.68 68.8183 10.48C68.8183 11.6667 69.1183 12.5867 69.7183 13.24C70.3316 13.88 71.0983 14.2 72.0183 14.2ZM78.7802 0.551999H81.7202V1.368H80.7722L80.7842 4.776H79.7042L79.7282 1.368H78.7802V0.551999ZM87.4922 0.551999V4.776H86.5082L86.4842 1.92L85.2962 4.776H84.5642L83.3882 1.86V4.776H82.4162V0.551999H83.8082L84.9602 3.516L86.1722 0.551999H87.4922Z" fill="black"/>
</svg>
