<svg width="85" height="85" viewBox="0 0 85 85" fill="none" xmlns="http://www.w3.org/2000/svg">
    <g filter="url(#filter0_d_6896_55521)">
        <ellipse cx="41.4553" cy="37.2925" rx="37.3088" ry="37.2925" fill=" #FFFFF" />
    </g>
    <path
        d="M40.0359 23.1169C40.971 23.1901 41.8969 22.8896 42.6105 22.2813C43.3242 21.673 43.7673 20.8066 43.8427 19.8721C43.9152 18.9369 43.6136 18.0111 43.0042 17.2978C42.3948 16.5845 41.5272 16.1419 40.5918 16.067C39.6565 15.9937 38.7304 16.2944 38.0168 16.9032C37.3033 17.512 36.8607 18.3791 36.7863 19.3138C36.7498 19.7769 36.8049 20.2426 36.9485 20.6843C37.092 21.1261 37.3212 21.5353 37.623 21.8885C37.9247 22.2417 38.2931 22.532 38.7072 22.7429C39.1212 22.9538 39.5727 23.0811 40.0359 23.1176V23.1169Z"
        fill="#05A98B" />
    <path
        d="M41.0046 30.2043C41.5499 30.3091 42.0415 30.601 42.3945 31.0295C42.7474 31.458 42.9396 31.9963 42.9378 32.5513C42.9377 33.1853 42.6857 33.7932 42.2372 34.2414C41.7888 34.6897 41.1806 34.9416 40.5464 34.9418H32.7972C32.5481 34.9418 32.3027 34.8806 32.0828 34.7635C31.8629 34.6464 31.6752 34.477 31.5363 34.2702C31.3973 34.0635 31.3114 33.8257 31.2862 33.578C31.2609 33.3302 31.297 33.08 31.3914 32.8495L32.2292 30.8947L41.5605 24.2141H37.1144C35.4069 24.1666 34.2071 24.7595 33.5191 26.1038C33.0528 27.0083 30.5759 32.5392 30.5759 32.5392C30.431 32.9019 30.3773 33.2946 30.4194 33.6829C30.4615 34.0712 30.5981 34.4433 30.8174 34.7666C31.0366 35.0899 31.3318 35.3546 31.677 35.5375C32.0223 35.7204 32.4071 35.816 32.7979 35.8158H35.8245L34.9318 41.6834L30.2343 55.2521C30.0443 55.8273 30.0908 56.4544 30.3634 56.9954C30.636 57.5363 31.1125 57.9469 31.6879 58.1368C32.2634 58.3266 32.8907 58.2802 33.432 58.0077C33.9732 57.7352 34.3839 57.259 34.5739 56.6838L39.9756 41.3778C41.029 43.0886 43.1256 46.1553 43.4822 46.7346C43.5642 47.6974 44.3186 56.1851 44.3186 56.1851C44.3728 56.7883 44.6643 57.3454 45.1291 57.734C45.5939 58.1226 46.1939 58.3109 46.7975 58.2577C47.0965 58.2314 47.3874 58.1464 47.6536 58.0076C47.9197 57.8687 48.1558 57.6788 48.3484 57.4487C48.541 57.2185 48.6863 56.9526 48.776 56.6663C48.8657 56.38 48.898 56.0787 48.8711 55.7799L47.9831 45.7907C47.9529 45.4369 47.8391 45.0953 47.6509 44.7941L43.7675 38.503L44.3857 30.6074C44.3857 30.6074 45.3056 33.7316 45.374 33.9573C45.5713 34.6023 46.016 35.0651 46.4721 35.4343C46.7392 35.6471 51.272 38.7306 51.272 38.7306C51.5242 38.8472 51.7302 38.9495 52.0007 38.9678C52.2095 38.9845 52.4196 38.96 52.6189 38.8956C52.8182 38.8312 53.0029 38.7281 53.1623 38.5923C53.3218 38.4566 53.4529 38.2907 53.5482 38.1042C53.6435 37.9178 53.7011 37.7143 53.7177 37.5056C53.7384 37.2393 53.6922 36.9721 53.5833 36.7282C53.4744 36.4844 53.3062 36.2716 53.0941 36.1092C53.0941 36.1092 48.5775 33.0094 48.3939 32.8745C48.2589 32.7664 48.156 32.6235 48.0963 32.4612L46.3088 26.0258C46.018 25.0522 45.0365 24.2147 43.7953 24.2147H43.2605L41.0039 30.205L41.0046 30.2043Z"
        fill="#05A98B" />
    <path
        d="M40.5472 34.0679C40.9366 34.0713 41.3124 33.9245 41.5962 33.658C41.8801 33.3915 42.0502 33.0258 42.0712 32.6371C42.0921 32.2484 41.9623 31.8665 41.7088 31.5711C41.4552 31.2756 41.0974 31.0892 40.7098 31.0508L39.6016 34.0774L40.5472 34.0679Z"
        fill="#05A98B" />
    <defs>
        <filter id="filter0_d_6896_55521" x="0.146484" y="0" width="82.6172" height="82.585"
            filterUnits="userSpaceOnUse" color-interpolation-filters="sRGB">
            <feFlood flood-opacity="0" result="BackgroundImageFix" />
            <feColorMatrix in="SourceAlpha" type="matrix" values="0 0 0 0 0 0 0 0 0 0 0 0 0 0 0 0 0 0 127 0"
                result="hardAlpha" />
            <feOffset dy="4" />
            <feGaussianBlur stdDeviation="2" />
            <feComposite in2="hardAlpha" operator="out" />
            <feColorMatrix type="matrix" values="0 0 0 0 0 0 0 0 0 0 0 0 0 0 0 0 0 0 0.25 0" />
            <feBlend mode="normal" in2="BackgroundImageFix" result="effect1_dropShadow_6896_55521" />
            <feBlend mode="normal" in="SourceGraphic" in2="effect1_dropShadow_6896_55521" result="shape" />
        </filter>
    </defs>
</svg>