<svg width="85" height="85" viewBox="0 0 85 85" fill="none" xmlns="http://www.w3.org/2000/svg">
    <g filter="url(#filter0_d_6886_55616)">
        <ellipse cx="42.133" cy="37.3956" rx="37.3088" ry="37.2925" fill=" #FFFFF" />
    </g>
    <path
        d="M42.1328 49.4649V50.7354C42.1332 50.9038 42.2003 51.0652 42.3194 51.1844C42.4386 51.3035 42.6001 51.3705 42.7686 51.3709H61.198V48.8301H42.7686C42.6002 48.8304 42.4388 48.8974 42.3197 49.0164C42.2005 49.1353 42.1333 49.2966 42.1328 49.4649Z"
        fill="#05A98B" />
    <path
        d="M61.1973 45.0181H42.7686C42.6001 45.0184 42.4386 45.0855 42.3194 45.2046C42.2003 45.3237 42.1332 45.4852 42.1328 45.6536V46.924C42.1333 47.0924 42.2005 47.2536 42.3197 47.3726C42.4388 47.4916 42.6002 47.5585 42.7686 47.5589H61.198V45.0181H61.1973Z"
        fill="#05A98B" />
    <path
        d="M61.8327 55.1812H61.1969V52.6404H42.7682C42.5997 52.6409 42.4383 52.7081 42.3192 52.8271C42.2 52.9462 42.1329 53.1075 42.1324 53.2759V55.1819H40.8614V44.383C40.8617 44.2146 40.9288 44.0532 41.048 43.934C41.1672 43.8149 41.3287 43.7479 41.4972 43.7475H61.1975V41.2067C61.1966 40.87 61.0625 40.5474 60.8243 40.3094C60.5861 40.0713 60.2634 39.9372 59.9266 39.9363H51.0291V31.0434C51.0282 30.0329 50.6262 29.064 49.9114 28.3494C49.1965 27.6349 48.2272 27.233 47.2162 27.2321H44.0385V22.1505C44.0385 20.8028 43.5028 19.5102 42.5494 18.5572C41.596 17.6042 40.3029 17.0688 38.9546 17.0688C37.6063 17.0688 36.3132 17.6042 35.3598 18.5572C34.4063 19.5102 33.8707 20.8028 33.8707 22.1505V27.2321H30.693C29.6821 27.2332 28.713 27.6351 27.9983 28.3497C27.2836 29.0642 26.8816 30.033 26.8807 31.0434V39.9363H26.2456C25.8958 39.9363 25.4512 40.1741 25.258 40.4648L23.4203 43.2183C23.2271 43.5097 23.0678 44.0328 23.0678 44.3824V55.1812H22.4327C22.2642 55.1818 22.1028 55.2489 21.9837 55.368C21.8646 55.487 21.7974 55.6484 21.7969 55.8168V57.0872C21.7974 57.2555 21.8646 57.4168 21.9837 57.5357C22.1029 57.6547 22.2643 57.7217 22.4327 57.722H61.8327C62.001 57.7215 62.1622 57.6544 62.2812 57.5355C62.4002 57.4166 62.4673 57.2554 62.4678 57.0872V55.8168C62.4673 55.6485 62.4002 55.4872 62.2812 55.3682C62.1623 55.2491 62.001 55.1819 61.8327 55.1812ZM35.7775 51.37V55.1812H35.1417V51.37H32.9177V52.6404C33.0926 52.6404 33.2356 52.784 33.2356 52.9582V53.5937C33.2354 53.6779 33.2018 53.7587 33.1423 53.8182C33.0827 53.8778 33.0019 53.9113 32.9177 53.9115V55.1819H32.2818V53.9115C32.1976 53.9113 32.1168 53.8778 32.0572 53.8182C31.9977 53.7587 31.9641 53.6779 31.9639 53.5937V52.9582C31.9639 52.784 32.107 52.6404 32.2818 52.6404V51.37H30.0578V55.1812H29.4227V50.7344H35.7782V51.37H35.7775ZM38.9553 18.0215C40.0504 18.0227 41.1004 18.4582 41.8748 19.2322C42.6492 20.0063 43.0848 21.0558 43.0861 22.1505C43.0861 24.4271 41.2335 26.2795 38.9553 26.2795C36.677 26.2795 34.8245 24.4271 34.8245 22.1505C34.8255 21.0557 35.2611 20.0061 36.0355 19.232C36.81 18.4579 37.86 18.0226 38.9553 18.0215ZM28.1517 31.0434C28.1537 30.3701 28.4221 29.725 28.8984 29.2489C29.3747 28.7728 30.0201 28.5045 30.6936 28.5026H47.2162C47.8898 28.5045 48.5352 28.7728 49.0115 29.2489C49.4877 29.725 49.7562 30.3701 49.7582 31.0434V39.9363H38.3194C37.9826 39.9372 37.6599 40.0713 37.4217 40.3094C37.1836 40.5474 37.0494 40.87 37.0485 41.2067V55.1812H36.4127V50.29H28.7869V55.1812H28.151V31.0434H28.1517ZM24.9746 43.4297C24.9746 43.2556 25.1177 43.112 25.2925 43.112H25.9284C26.1033 43.112 26.2463 43.2556 26.2463 43.4297V46.6061C26.2459 46.6903 26.2123 46.7709 26.1528 46.8304C26.0932 46.8899 26.0126 46.9235 25.9284 46.9239H25.2919C25.2077 46.9235 25.127 46.8899 25.0675 46.8304C25.0079 46.7709 24.9743 46.6903 24.974 46.6061V43.4297H24.9746ZM24.9746 49.1469C24.9746 48.9728 25.1177 48.8292 25.2925 48.8292H25.9284C26.1033 48.8292 26.2463 48.9728 26.2463 49.1469V52.3233C26.2461 52.4075 26.2125 52.4882 26.153 52.5478C26.0934 52.6074 26.0126 52.6409 25.9284 52.6411H25.2919C25.2076 52.6409 25.1268 52.6074 25.0673 52.5478C25.0077 52.4882 24.9741 52.4075 24.974 52.3233V49.1469H24.9746Z"
        fill="#05A98B" />
    <path
        d="M29.7417 39.3017H30.3776C30.4618 39.3013 30.5424 39.2677 30.602 39.2082C30.6615 39.1487 30.6951 39.0681 30.6955 38.9839V35.8075C30.6951 35.7233 30.6615 35.6427 30.602 35.5832C30.5424 35.5237 30.4618 35.4901 30.3776 35.4897H29.7417C29.6575 35.4901 29.5769 35.5237 29.5173 35.5832C29.4578 35.6427 29.4242 35.7233 29.4238 35.8075V38.9839C29.4238 39.158 29.5669 39.3017 29.7417 39.3017Z"
        fill="#05A98B" />
    <path
        d="M32.2828 39.3017H32.9186C33.0028 39.3013 33.0834 39.2677 33.143 39.2082C33.2025 39.1487 33.2361 39.0681 33.2365 38.9839V35.8075C33.2361 35.7233 33.2025 35.6427 33.143 35.5832C33.0834 35.5237 33.0028 35.4901 32.9186 35.4897H32.2828C32.1985 35.4901 32.1179 35.5237 32.0584 35.5832C31.9988 35.6427 31.9652 35.7233 31.9648 35.8075V38.9839C31.9648 39.158 32.1079 39.3017 32.2828 39.3017Z"
        fill="#05A98B" />
    <path
        d="M34.8238 39.3017H35.4596C35.5438 39.3013 35.6245 39.2677 35.684 39.2082C35.7435 39.1487 35.7771 39.0681 35.7775 38.9839V35.8075C35.7771 35.7233 35.7435 35.6427 35.684 35.5832C35.6245 35.5237 35.5438 35.4901 35.4596 35.4897H34.8238C34.7396 35.4901 34.6589 35.5237 34.5994 35.5832C34.5398 35.6427 34.5062 35.7233 34.5059 35.8075V38.9839C34.5059 39.158 34.6489 39.3017 34.8238 39.3017Z"
        fill="#05A98B" />
    <path
        d="M37.3667 39.3017H38.0026C38.0868 39.3013 38.1674 39.2677 38.227 39.2082C38.2865 39.1487 38.3201 39.0681 38.3205 38.9839V35.8075C38.3201 35.7233 38.2865 35.6427 38.227 35.5832C38.1674 35.5237 38.0868 35.4901 38.0026 35.4897H37.3667C37.2825 35.4901 37.2019 35.5237 37.1423 35.5832C37.0828 35.6427 37.0492 35.7233 37.0488 35.8075V38.9839C37.0488 39.158 37.1919 39.3017 37.3667 39.3017Z"
        fill="#05A98B" />
    <path
        d="M39.9078 39.3017H40.5436C40.6278 39.3013 40.7084 39.2677 40.768 39.2082C40.8275 39.1487 40.8611 39.0681 40.8615 38.9839V35.8075C40.8611 35.7233 40.8275 35.6427 40.768 35.5832C40.7084 35.5237 40.6278 35.4901 40.5436 35.4897H39.9078C39.8235 35.4901 39.7429 35.5237 39.6834 35.5832C39.6238 35.6427 39.5902 35.7233 39.5898 35.8075V38.9839C39.5898 39.158 39.7329 39.3017 39.9078 39.3017Z"
        fill="#05A98B" />
    <path
        d="M29.7417 44.3832H30.3776C30.4618 44.3828 30.5424 44.3493 30.602 44.2897C30.6615 44.2302 30.6951 44.1496 30.6955 44.0654V40.8891C30.6951 40.8049 30.6615 40.7243 30.602 40.6648C30.5424 40.6052 30.4618 40.5716 30.3776 40.5713H29.7417C29.6575 40.5716 29.5769 40.6052 29.5173 40.6648C29.4578 40.7243 29.4242 40.8049 29.4238 40.8891V44.0654C29.4238 44.2396 29.5669 44.3832 29.7417 44.3832Z"
        fill="#05A98B" />
    <path
        d="M32.2828 44.3832H32.9186C33.0028 44.3828 33.0834 44.3493 33.143 44.2897C33.2025 44.2302 33.2361 44.1496 33.2365 44.0654V40.8891C33.2361 40.8049 33.2025 40.7243 33.143 40.6648C33.0834 40.6052 33.0028 40.5716 32.9186 40.5713H32.2828C32.1985 40.5716 32.1179 40.6052 32.0584 40.6648C31.9988 40.7243 31.9652 40.8049 31.9648 40.8891V44.0654C31.9648 44.2396 32.1079 44.3832 32.2828 44.3832Z"
        fill="#05A98B" />
    <path
        d="M34.8238 44.3832H35.4596C35.5438 44.3828 35.6245 44.3493 35.684 44.2897C35.7435 44.2302 35.7771 44.1496 35.7775 44.0654V40.8891C35.7771 40.8049 35.7435 40.7243 35.684 40.6648C35.6245 40.6052 35.5438 40.5716 35.4596 40.5713H34.8238C34.7396 40.5716 34.6589 40.6052 34.5994 40.6648C34.5398 40.7243 34.5062 40.8049 34.5059 40.8891V44.0654C34.5059 44.2396 34.6489 44.3832 34.8238 44.3832Z"
        fill="#05A98B" />
    <path
        d="M29.7417 49.4647H30.3776C30.4618 49.4644 30.5424 49.4308 30.602 49.3713C30.6615 49.3118 30.6951 49.2311 30.6955 49.147V45.9706C30.6951 45.8864 30.6615 45.8058 30.602 45.7463C30.5424 45.6868 30.4618 45.6532 30.3776 45.6528H29.7417C29.6575 45.6532 29.5769 45.6868 29.5173 45.7463C29.4578 45.8058 29.4242 45.8864 29.4238 45.9706V49.147C29.4238 49.3211 29.5669 49.4647 29.7417 49.4647Z"
        fill="#05A98B" />
    <path
        d="M32.2828 49.4647H32.9186C33.0028 49.4644 33.0834 49.4308 33.143 49.3713C33.2025 49.3118 33.2361 49.2311 33.2365 49.147V45.9706C33.2361 45.8864 33.2025 45.8058 33.143 45.7463C33.0834 45.6868 33.0028 45.6532 32.9186 45.6528H32.2828C32.1985 45.6532 32.1179 45.6868 32.0584 45.7463C31.9988 45.8058 31.9652 45.8864 31.9648 45.9706V49.147C31.9648 49.3211 32.1079 49.4647 32.2828 49.4647Z"
        fill="#05A98B" />
    <path
        d="M34.8238 49.4647H35.4596C35.5438 49.4644 35.6245 49.4308 35.684 49.3713C35.7435 49.3118 35.7771 49.2311 35.7775 49.147V45.9706C35.7771 45.8864 35.7435 45.8058 35.684 45.7463C35.6245 45.6868 35.5438 45.6532 35.4596 45.6528H34.8238C34.7396 45.6532 34.6589 45.6868 34.5994 45.7463C34.5398 45.8058 34.5062 45.8864 34.5059 45.9706V49.147C34.5059 49.3211 34.6489 49.4647 34.8238 49.4647Z"
        fill="#05A98B" />
    <path
        d="M29.7417 34.2201H30.3776C30.4618 34.2198 30.5424 34.1862 30.602 34.1266C30.6615 34.0671 30.6951 33.9865 30.6955 33.9023V30.726C30.6951 30.6418 30.6615 30.5612 30.602 30.5017C30.5424 30.4422 30.4618 30.4086 30.3776 30.4082H29.7417C29.6575 30.4086 29.5769 30.4422 29.5173 30.5017C29.4578 30.5612 29.4242 30.6418 29.4238 30.726V33.9023C29.4238 34.0765 29.5669 34.2201 29.7417 34.2201Z"
        fill="#05A98B" />
    <path
        d="M32.2828 34.2201H32.9186C33.0028 34.2198 33.0834 34.1862 33.143 34.1266C33.2025 34.0671 33.2361 33.9865 33.2365 33.9023V30.726C33.2361 30.6418 33.2025 30.5612 33.143 30.5017C33.0834 30.4422 33.0028 30.4086 32.9186 30.4082H32.2828C32.1985 30.4086 32.1179 30.4422 32.0584 30.5017C31.9988 30.5612 31.9652 30.6418 31.9648 30.726V33.9023C31.9648 34.0765 32.1079 34.2201 32.2828 34.2201Z"
        fill="#05A98B" />
    <path
        d="M34.8238 34.2201H35.4596C35.5438 34.2198 35.6245 34.1862 35.684 34.1266C35.7435 34.0671 35.7771 33.9865 35.7775 33.9023V30.726C35.7771 30.6418 35.7435 30.5612 35.684 30.5017C35.6245 30.4422 35.5438 30.4086 35.4596 30.4082H34.8238C34.7396 30.4086 34.6589 30.4422 34.5994 30.5017C34.5398 30.5612 34.5062 30.6418 34.5059 30.726V33.9023C34.5059 34.0765 34.6489 34.2201 34.8238 34.2201Z"
        fill="#05A98B" />
    <path
        d="M37.3667 34.2201H38.0026C38.0868 34.2198 38.1674 34.1862 38.227 34.1266C38.2865 34.0671 38.3201 33.9865 38.3205 33.9023V30.726C38.3201 30.6418 38.2865 30.5612 38.227 30.5017C38.1674 30.4422 38.0868 30.4086 38.0026 30.4082H37.3667C37.2825 30.4086 37.2019 30.4422 37.1423 30.5017C37.0828 30.5612 37.0492 30.6418 37.0488 30.726V33.9023C37.0488 34.0765 37.1919 34.2201 37.3667 34.2201Z"
        fill="#05A98B" />
    <path
        d="M39.9078 34.2201H40.5436C40.6278 34.2198 40.7084 34.1862 40.768 34.1266C40.8275 34.0671 40.8611 33.9865 40.8615 33.9023V30.726C40.8611 30.6418 40.8275 30.5612 40.768 30.5017C40.7084 30.4422 40.6278 30.4086 40.5436 30.4082H39.9078C39.8235 30.4086 39.7429 30.4422 39.6834 30.5017C39.6238 30.5612 39.5902 30.6418 39.5898 30.726V33.9023C39.5898 34.0765 39.7329 34.2201 39.9078 34.2201Z"
        fill="#05A98B" />
    <path
        d="M42.4507 39.3017H43.0865C43.1708 39.3013 43.2514 39.2677 43.3109 39.2082C43.3705 39.1487 43.4041 39.0681 43.4045 38.9839V35.8075C43.4041 35.7233 43.3705 35.6427 43.3109 35.5832C43.2514 35.5237 43.1708 35.4901 43.0865 35.4897H42.4507C42.3665 35.4901 42.2859 35.5237 42.2263 35.5832C42.1668 35.6427 42.1332 35.7233 42.1328 35.8075V38.9839C42.1328 39.158 42.2758 39.3017 42.4507 39.3017Z"
        fill="#05A98B" />
    <path
        d="M42.4507 34.2201H43.0865C43.1708 34.2198 43.2514 34.1862 43.3109 34.1266C43.3705 34.0671 43.4041 33.9865 43.4045 33.9023V30.726C43.4041 30.6418 43.3705 30.5612 43.3109 30.5017C43.2514 30.4422 43.1708 30.4086 43.0865 30.4082H42.4507C42.3665 30.4086 42.2859 30.4422 42.2263 30.5017C42.1668 30.5612 42.1332 30.6418 42.1328 30.726V33.9023C42.1328 34.0765 42.2758 34.2201 42.4507 34.2201Z"
        fill="#05A98B" />
    <path
        d="M44.9917 39.3017H45.6276C45.7118 39.3013 45.7924 39.2677 45.852 39.2082C45.9115 39.1487 45.9451 39.0681 45.9455 38.9839V35.8075C45.9451 35.7233 45.9115 35.6427 45.852 35.5832C45.7924 35.5237 45.7118 35.4901 45.6276 35.4897H44.9917C44.9075 35.4901 44.8269 35.5237 44.7673 35.5832C44.7078 35.6427 44.6742 35.7233 44.6738 35.8075V38.9839C44.6738 39.158 44.8169 39.3017 44.9917 39.3017Z"
        fill="#05A98B" />
    <path
        d="M44.9917 34.2201H45.6276C45.7118 34.2198 45.7924 34.1862 45.852 34.1266C45.9115 34.0671 45.9451 33.9865 45.9455 33.9023V30.726C45.9451 30.6418 45.9115 30.5612 45.852 30.5017C45.7924 30.4422 45.7118 30.4086 45.6276 30.4082H44.9917C44.9075 30.4086 44.8269 30.4422 44.7673 30.5017C44.7078 30.5612 44.6742 30.6418 44.6738 30.726V33.9023C44.6738 34.0765 44.8169 34.2201 44.9917 34.2201Z"
        fill="#05A98B" />
    <path
        d="M47.5347 39.3017H48.1705C48.2547 39.3013 48.3354 39.2677 48.3949 39.2082C48.4545 39.1487 48.4881 39.0681 48.4884 38.9839V35.8075C48.4881 35.7233 48.4545 35.6427 48.3949 35.5832C48.3354 35.5237 48.2547 35.4901 48.1705 35.4897H47.5347C47.4505 35.4901 47.3698 35.5237 47.3103 35.5832C47.2508 35.6427 47.2172 35.7233 47.2168 35.8075V38.9839C47.2168 39.158 47.3598 39.3017 47.5347 39.3017Z"
        fill="#05A98B" />
    <path
        d="M47.5347 34.2201H48.1705C48.2547 34.2198 48.3354 34.1862 48.3949 34.1266C48.4545 34.0671 48.4881 33.9865 48.4884 33.9023V30.726C48.4881 30.6418 48.4545 30.5612 48.3949 30.5017C48.3354 30.4422 48.2547 30.4086 48.1705 30.4082H47.5347C47.4505 30.4086 47.3698 30.4422 47.3103 30.5017C47.2508 30.5612 47.2172 30.6418 47.2168 30.726V33.9023C47.2168 34.0765 47.3598 34.2201 47.5347 34.2201Z"
        fill="#05A98B" />
    <path
        d="M37.8956 23.2098V24.798C37.8956 25.0893 38.1349 25.3272 38.425 25.3272H39.4845C39.6247 25.3266 39.7591 25.2707 39.8583 25.1716C39.9574 25.0725 40.0134 24.9382 40.0139 24.798V23.2098H41.6028C41.8943 23.2098 42.1322 22.9713 42.1322 22.6806V21.6216C42.1318 21.4814 42.0759 21.347 41.9767 21.2478C41.8775 21.1487 41.7431 21.0928 41.6028 21.0925H40.0139V19.5043C40.0134 19.3641 39.9574 19.2298 39.8583 19.1307C39.7591 19.0316 39.6247 18.9756 39.4845 18.9751H38.425C38.2848 18.9756 38.1504 19.0316 38.0513 19.1307C37.9521 19.2298 37.8962 19.3641 37.8956 19.5043V21.0925H36.3067C36.1664 21.0928 36.032 21.1487 35.9328 21.2478C35.8336 21.347 35.7777 21.4814 35.7773 21.6216V22.6806C35.7773 22.972 36.0159 23.2098 36.3067 23.2098H37.8956Z"
        fill="#05A98B" />
    <defs>
        <filter id="filter0_d_6886_55616" x="0.824219" y="0.103027" width="82.6172" height="82.585"
            filterUnits="userSpaceOnUse" color-interpolation-filters="sRGB">
            <feFlood flood-opacity="0" result="BackgroundImageFix" />
            <feColorMatrix in="SourceAlpha" type="matrix" values="0 0 0 0 0 0 0 0 0 0 0 0 0 0 0 0 0 0 127 0"
                result="hardAlpha" />
            <feOffset dy="4" />
            <feGaussianBlur stdDeviation="2" />
            <feComposite in2="hardAlpha" operator="out" />
            <feColorMatrix type="matrix" values="0 0 0 0 0 0 0 0 0 0 0 0 0 0 0 0 0 0 0.25 0" />
            <feBlend mode="normal" in2="BackgroundImageFix" result="effect1_dropShadow_6886_55616" />
            <feBlend mode="normal" in="SourceGraphic" in2="effect1_dropShadow_6886_55616" result="shape" />
        </filter>
    </defs>
</svg>