<svg width="87" height="22" viewBox="0 0 87 22" fill="none" xmlns="http://www.w3.org/2000/svg">
<path d="M0.02125 8.89879C0.02125 7.53879 0.334583 6.31879 0.96125 5.23879C1.60125 4.15879 2.46125 3.31879 3.54125 2.71879C4.63458 2.10545 5.82792 1.79879 7.12125 1.79879C8.60125 1.79879 9.91458 2.16545 11.0613 2.89879C12.2213 3.61879 13.0613 4.64545 13.5813 5.97879H10.8413C10.4813 5.24545 9.98125 4.69879 9.34125 4.33879C8.70125 3.97879 7.96125 3.79879 7.12125 3.79879C6.20125 3.79879 5.38125 4.00545 4.66125 4.41879C3.94125 4.83212 3.37458 5.42545 2.96125 6.19879C2.56125 6.97212 2.36125 7.87212 2.36125 8.89879C2.36125 9.92545 2.56125 10.8255 2.96125 11.5988C3.37458 12.3721 3.94125 12.9721 4.66125 13.3988C5.38125 13.8121 6.20125 14.0188 7.12125 14.0188C7.96125 14.0188 8.70125 13.8388 9.34125 13.4788C9.98125 13.1188 10.4813 12.5721 10.8413 11.8388H13.5813C13.0613 13.1721 12.2213 14.1988 11.0613 14.9188C9.91458 15.6388 8.60125 15.9988 7.12125 15.9988C5.81458 15.9988 4.62125 15.6988 3.54125 15.0988C2.46125 14.4855 1.60125 13.6388 0.96125 12.5588C0.334583 11.4788 0.02125 10.2588 0.02125 8.89879ZM15.49 10.3188C15.49 9.21212 15.7167 8.23212 16.17 7.37879C16.6367 6.52545 17.2633 5.86545 18.05 5.39879C18.85 4.91879 19.73 4.67879 20.69 4.67879C21.5567 4.67879 22.31 4.85212 22.95 5.19879C23.6033 5.53212 24.1233 5.95212 24.51 6.45879V4.85879H26.81V15.8788H24.51V14.2388C24.1233 14.7588 23.5967 15.1921 22.93 15.5388C22.2633 15.8855 21.5033 16.0588 20.65 16.0588C19.7033 16.0588 18.8367 15.8188 18.05 15.3388C17.2633 14.8455 16.6367 14.1655 16.17 13.2988C15.7167 12.4188 15.49 11.4255 15.49 10.3188ZM24.51 10.3588C24.51 9.59879 24.35 8.93879 24.03 8.37879C23.7233 7.81879 23.3167 7.39212 22.81 7.09879C22.3033 6.80545 21.7567 6.65879 21.17 6.65879C20.5833 6.65879 20.0367 6.80545 19.53 7.09879C19.0233 7.37879 18.61 7.79879 18.29 8.35879C17.9833 8.90545 17.83 9.55879 17.83 10.3188C17.83 11.0788 17.9833 11.7455 18.29 12.3188C18.61 12.8921 19.0233 13.3321 19.53 13.6388C20.05 13.9321 20.5967 14.0788 21.17 14.0788C21.7567 14.0788 22.3033 13.9321 22.81 13.6388C23.3167 13.3455 23.7233 12.9188 24.03 12.3588C24.35 11.7855 24.51 11.1188 24.51 10.3588ZM32.0847 6.45879C32.418 5.89879 32.858 5.46545 33.4047 5.15879C33.9647 4.83879 34.6247 4.67879 35.3847 4.67879V7.03879H34.8047C33.9114 7.03879 33.2314 7.26545 32.7647 7.71879C32.3114 8.17212 32.0847 8.95879 32.0847 10.0788V15.8788H29.8047V4.85879H32.0847V6.45879ZM47.5805 10.0988C47.5805 10.5121 47.5538 10.8855 47.5005 11.2188H39.0805C39.1471 12.0988 39.4738 12.8055 40.0605 13.3388C40.6471 13.8721 41.3671 14.1388 42.2205 14.1388C43.4471 14.1388 44.3138 13.6255 44.8205 12.5988H47.2805C46.9471 13.6121 46.3405 14.4455 45.4605 15.0988C44.5938 15.7388 43.5138 16.0588 42.2205 16.0588C41.1671 16.0588 40.2205 15.8255 39.3805 15.3588C38.5538 14.8788 37.9005 14.2121 37.4205 13.3588C36.9538 12.4921 36.7205 11.4921 36.7205 10.3588C36.7205 9.22545 36.9471 8.23212 37.4005 7.37879C37.8671 6.51212 38.5138 5.84545 39.3405 5.37879C40.1805 4.91212 41.1405 4.67879 42.2205 4.67879C43.2605 4.67879 44.1871 4.90545 45.0005 5.35879C45.8138 5.81212 46.4471 6.45212 46.9005 7.27879C47.3538 8.09212 47.5805 9.03212 47.5805 10.0988ZM45.2005 9.37879C45.1871 8.53879 44.8871 7.86545 44.3005 7.35879C43.7138 6.85212 42.9871 6.59879 42.1205 6.59879C41.3338 6.59879 40.6605 6.85212 40.1005 7.35879C39.5405 7.85212 39.2071 8.52545 39.1005 9.37879H45.2005ZM52.1042 1.07879V15.8788H49.8242V1.07879H52.1042ZM65.0177 4.85879L58.2577 21.0588H55.8977L58.1377 15.6988L53.7977 4.85879H56.3377L59.4377 13.2588L62.6577 4.85879H65.0177ZM71.5183 16.0588C70.4783 16.0588 69.5383 15.8255 68.6983 15.3588C67.8583 14.8788 67.1983 14.2121 66.7183 13.3588C66.2383 12.4921 65.9983 11.4921 65.9983 10.3588C65.9983 9.23879 66.2449 8.24545 66.7383 7.37879C67.2316 6.51212 67.9049 5.84545 68.7583 5.37879C69.6116 4.91212 70.5649 4.67879 71.6183 4.67879C72.6716 4.67879 73.6249 4.91212 74.4783 5.37879C75.3316 5.84545 76.0049 6.51212 76.4983 7.37879C76.9916 8.24545 77.2383 9.23879 77.2383 10.3588C77.2383 11.4788 76.9849 12.4721 76.4783 13.3388C75.9716 14.2055 75.2783 14.8788 74.3983 15.3588C73.5316 15.8255 72.5716 16.0588 71.5183 16.0588ZM71.5183 14.0788C72.1049 14.0788 72.6516 13.9388 73.1583 13.6588C73.6783 13.3788 74.0983 12.9588 74.4183 12.3988C74.7383 11.8388 74.8983 11.1588 74.8983 10.3588C74.8983 9.55879 74.7449 8.88545 74.4383 8.33879C74.1316 7.77879 73.7249 7.35879 73.2183 7.07879C72.7116 6.79879 72.1649 6.65879 71.5783 6.65879C70.9916 6.65879 70.4449 6.79879 69.9383 7.07879C69.4449 7.35879 69.0516 7.77879 68.7583 8.33879C68.4649 8.88545 68.3183 9.55879 68.3183 10.3588C68.3183 11.5455 68.6183 12.4655 69.2183 13.1188C69.8316 13.7588 70.5983 14.0788 71.5183 14.0788ZM78.2802 0.430787H81.2202V1.24679H80.2722L80.2842 4.65479H79.2042L79.2282 1.24679H78.2802V0.430787ZM86.9922 0.430787V4.65479H86.0082L85.9842 1.79879L84.7962 4.65479H84.0642L82.8882 1.73879V4.65479H81.9162V0.430787H83.3082L84.4602 3.39479L85.6722 0.430787H86.9922Z" fill="white"/>
</svg>
