<svg width="85" height="85" viewBox="0 0 85 85" fill="none" xmlns="http://www.w3.org/2000/svg">
    <g filter="url(#filter0_d_6886_55604)">
        <ellipse cx="41.6623" cy="37.8443" rx="37.3088" ry="37.2925" fill=" #FFFFF" />
    </g>
    <path fill-rule="evenodd" clip-rule="evenodd"
        d="M43.9443 18.6289C42.7624 18.3394 41.1912 18.3308 39.6225 18.3308C37.6507 18.3308 36.4253 18.7752 35.6291 19.3715C34.8192 19.9764 34.3129 20.8437 34.0193 21.9082C33.7245 22.9804 33.666 24.1772 33.6909 25.3502C33.6959 25.5421 33.7021 25.7318 33.7095 25.9194H56.9669C57.6536 25.9194 58.2184 26.4072 58.14 27.0013C57.3413 33.0808 49.8796 37.8443 40.7944 37.8443C31.7079 37.8443 24.2474 33.0808 23.4487 27.0013C23.3703 26.4072 23.9339 25.9194 24.6218 25.9194H31.2202C31.2128 25.7459 31.2078 25.5703 31.204 25.3914C31.1767 24.1523 31.2327 22.7397 31.5997 21.4041C31.9691 20.0621 32.6733 18.7243 34.0081 17.7258C35.3542 16.7176 37.2028 16.1626 39.6225 16.1626H39.712C41.17 16.1626 43.0709 16.1626 44.6185 16.542C45.4234 16.7393 46.2507 17.0656 46.8827 17.637C47.5482 18.2354 47.9065 19.0213 47.9065 19.9569C47.9065 20.2444 47.7755 20.5202 47.5422 20.7235C47.3089 20.9268 46.9924 21.041 46.6625 21.041C46.3325 21.041 46.0161 20.9268 45.7828 20.7235C45.5495 20.5202 45.4184 20.2444 45.4184 19.9569C45.4184 19.5374 45.2754 19.3064 45.095 19.1438C44.8823 18.9519 44.519 18.7698 43.9443 18.6289ZM30.842 57.3578V59.526H50.7467V57.3578H30.842Z"
        fill="#05A98B" />
    <path fill-rule="evenodd" clip-rule="evenodd"
        d="M48.3051 32.8142C50.0691 33.8723 50.7484 35.4095 50.7484 37.0887C50.7484 38.7637 50.0741 40.3226 48.3225 41.411C47.0934 42.1742 45.4239 42.649 43.2842 42.8474V40.6651C44.996 40.4809 46.138 40.1047 46.8769 39.6461C47.846 39.0434 48.2603 38.2119 48.2603 37.0877C48.2603 35.9689 47.8498 35.1732 46.8944 34.5997C45.8419 33.9688 43.9709 33.508 40.7961 33.508V31.3398C44.1537 31.3398 46.6356 31.8125 48.3051 32.8142ZM38.308 40.8104V42.9808C37.1038 43.0209 36.0463 43.1195 35.1904 43.3602C34.5199 43.5477 34.082 43.7971 33.8058 44.0963C33.5408 44.3825 33.3318 44.8161 33.3318 45.537C33.3318 46.2612 33.5408 46.697 33.8071 46.9854C34.0832 47.2857 34.5224 47.5361 35.1917 47.7247C36.585 48.1172 38.517 48.1323 40.7388 48.1323L40.7625 48.1302C40.8185 48.1269 40.8956 48.1215 40.9901 48.1193C41.1792 48.1117 41.4417 48.1085 41.7552 48.1204C42.5556 48.1487 43.3466 48.2803 44.1027 48.5107C44.9835 48.7882 45.929 49.2674 46.6518 50.0891C47.3833 50.9206 47.8087 52.0166 47.8087 53.4042C47.8087 54.7908 47.3833 55.8792 46.6344 56.6923C45.8941 57.4956 44.93 57.9335 44.0418 58.1677C43.7924 58.2332 43.5391 58.2864 43.2829 58.3271V56.1025C43.2954 56.0993 43.3078 56.0961 43.3202 56.0928C43.8738 55.9464 44.3528 55.7068 44.6936 55.3361C45.0271 54.974 45.3219 54.3897 45.3219 53.4042C45.3219 52.4199 45.0271 51.8063 44.6762 51.4074C44.3179 50.9997 43.8203 50.7276 43.258 50.5509C42.7363 50.3941 42.191 50.305 41.6395 50.2864C41.4128 50.2772 41.1856 50.279 40.959 50.2918L40.9304 50.294H40.9279L40.8657 50.3005H40.663C38.5867 50.3005 36.2466 50.3005 34.4266 49.7877C33.4637 49.5167 32.5419 49.0766 31.8651 48.3416C31.1784 47.5957 30.8438 46.6515 30.8438 45.537C30.8438 44.4237 31.1796 43.4816 31.8664 42.7368C32.5431 42.0051 33.4649 41.566 34.4278 41.2961C35.5798 40.973 36.9383 40.8538 38.308 40.8104Z"
        fill="#05A98B" />
    <path fill-rule="evenodd" clip-rule="evenodd"
        d="M39.6934 50.853V57.8996H42.1814V50.853H39.6934ZM39.6934 46.5167H42.1814V33.667H39.6934V46.5167Z"
        fill="#05A98B" />
    <defs>
        <filter id="filter0_d_6886_55604" x="0.353516" y="0.551758" width="82.6172" height="82.585"
            filterUnits="userSpaceOnUse" color-interpolation-filters="sRGB">
            <feFlood flood-opacity="0" result="BackgroundImageFix" />
            <feColorMatrix in="SourceAlpha" type="matrix" values="0 0 0 0 0 0 0 0 0 0 0 0 0 0 0 0 0 0 127 0"
                result="hardAlpha" />
            <feOffset dy="4" />
            <feGaussianBlur stdDeviation="2" />
            <feComposite in2="hardAlpha" operator="out" />
            <feColorMatrix type="matrix" values="0 0 0 0 0 0 0 0 0 0 0 0 0 0 0 0 0 0 0.25 0" />
            <feBlend mode="normal" in2="BackgroundImageFix" result="effect1_dropShadow_6886_55604" />
            <feBlend mode="normal" in="SourceGraphic" in2="effect1_dropShadow_6886_55604" result="shape" />
        </filter>
    </defs>
</svg>